# xmcd
#
# Track frame offsets: 
#        150
#        674
#        16944
#        32608
#        50545
#        69002
#        90288
#        108188
#        123271
#        138558
#        158522
#        176291
#        187807
#        203447
#        225994
#        241481
#        257140
#        274163
#        290542
#        308214
#
# Disc length: 4339 seconds
#
# Revision: 0
# Processed by: cddbd v1.5.2PL0 Copyright (c) Steve Scherf et al.
# Submitted via: ExactAudioCopy v0.99pb4
#
DISCID=f110f114
DTITLE=Various Artist - prevue promo 1065A-2
DYEAR=2001
DGENRE=pop
TTITLE0=blank - data
TTITLE1=Diamond Rio - One More Day
TTITLE2=Calling, The - Wherever You Will Go
TTITLE3=Case - Missing You(Lyric)
TTITLE4=Ashley Ballard - Hottie(Kobie's Proceed Crossover Remix)
TTITLE5=Madonna - What It Feels Like For A Girl
TTITLE6=Gloria Estefan - Out Of Nowhere (Thunderpuss Radio Edit)
TTITLE7=Joy Enriquez - Shake Up The Party(Radio Edit)
TTITLE8=Joy Enriquez - Shake Up The Party(Pound Boys Fiesta Radio Edit
TTITLE8=)
TTITLE9=Christina Aguilera, Lil' Kim, Mya and Pink - Lady Marmalade(Lyri
TTITLE9=cs)
TTITLE10=Sunshine Anderson - I Heard It All Before(Lyrics)
TTITLE11=Elmore James - Shake Your Moneymaker( "The Best Of The Fire S
TTITLE11=essions")
TTITLE12=Joe Henry - Stop(Alt. Mix)
TTITLE13=Los Super Seven - Teresa
TTITLE14=Eric Gales - Handwriting On The Wall
TTITLE15=Calling, The - Wherever You Will Go(Rock Mix)
TTITLE16=Geddy Lee - Home On The Strange
TTITLE17=Stereomud - Pain
TTITLE18=Mayfield Four - Eden (Turn The Page)
TTITLE19=6gig - Yesterday
EXTD=
EXTT0=
EXTT1=
EXTT2=
EXTT3=
EXTT4=
EXTT5=
EXTT6=
EXTT7=
EXTT8=
EXTT9=
EXTT10=
EXTT11=
EXTT12=
EXTT13=
EXTT14=
EXTT15=
EXTT16=
EXTT17=
EXTT18=
EXTT19=
PLAYORDER=
